<svg aria-hidden="true" style="position: absolute; width: 0; height: 0; overflow: hidden;" version="1.1" xmlns="http://www.w3.org/2000/svg" xmlns:xlink="http://www.w3.org/1999/xlink">
<defs>
<symbol id="icon-directions_walk" viewBox="0 0 24 24">
<path d="M9.797 8.906l-2.813 14.109h2.109l1.828-8.016 2.063 2.016v6h2.016v-7.5l-2.109-2.016 0.609-3q2.156 2.484 5.484 2.484v-1.969q-2.906 0-4.266-2.438l-1.031-1.594q-0.703-0.984-1.688-0.984-0.141 0-0.398 0.047t-0.398 0.047l-5.203 2.203v4.688h2.016v-3.375l1.781-0.703zM13.5 5.484q-0.797 0-1.406-0.586t-0.609-1.383 0.609-1.406 1.406-0.609 1.406 0.609 0.609 1.406-0.609 1.383-1.406 0.586z"></path>
</symbol>
<symbol id="icon-people_alt" viewBox="0 0 24 24">
<path d="M9 12.984q1.5 0 3.281 0.422t3.258 1.406 1.477 2.203v3h-16.031v-3q0-1.219 1.477-2.203t3.258-1.406 3.281-0.422zM15 12q-0.609 0-1.313-0.234 1.313-1.547 1.313-3.75 0-0.891-0.375-2.016t-0.938-1.781q0.703-0.234 1.313-0.234 1.641 0 2.813 1.195t1.172 2.836-1.172 2.813-2.813 1.172zM5.016 8.016q0-1.641 1.172-2.836t2.813-1.195 2.813 1.195 1.172 2.836-1.172 2.813-2.813 1.172-2.813-1.172-1.172-2.813zM16.688 13.125q2.484 0.375 4.406 1.383t1.922 2.508v3h-4.031v-3q0-2.297-2.297-3.891z"></path>
</symbol>
<symbol id="icon-heart" viewBox="0 0 20 20">
<path d="M17.19 4.155c-1.672-1.534-4.383-1.534-6.055 0l-1.135 1.042-1.136-1.042c-1.672-1.534-4.382-1.534-6.054 0-1.881 1.727-1.881 4.52 0 6.246l7.19 6.599 7.19-6.599c1.88-1.726 1.88-4.52 0-6.246z"></path>
</symbol>
<symbol id="icon-wallet" viewBox="0 0 20 20">
<path d="M16 6h-12.5v-0.5l11-0.88v0.88h1.5v-1.5c0-1.1-0.891-1.872-1.979-1.717l-10.041 1.434c-1.089 0.156-1.98 1.183-1.98 2.283v10c0 1.104 0.895 2 2 2h12c1.104 0 2-0.896 2-2v-8c0-1.104-0.896-2-2-2zM14.5 13.006c-0.828 0-1.5-0.672-1.5-1.5s0.672-1.5 1.5-1.5 1.5 0.672 1.5 1.5-0.672 1.5-1.5 1.5z"></path>
</symbol>
</defs>
</svg>
